<svg width="765" height="766" viewBox="0 0 765 766" fill="none" xmlns="http://www.w3.org/2000/svg">
<path d="M764.894 400.762C764.94 400.641 764.959 400.493 764.95 400.335C763.958 386.816 762.967 373.307 761.975 359.788C761.355 351.273 760.724 342.767 760.104 334.261C760.094 334.196 760.085 334.14 760.067 334.075C760.067 334.047 760.067 334.02 760.067 333.992C757.945 319.963 755.832 305.926 753.71 291.897C753.043 287.431 752.367 282.965 751.69 278.508C751.7 278.406 751.69 278.295 751.662 278.184C751.653 278.119 751.635 278.063 751.607 277.998C751.579 277.859 751.533 277.739 751.468 277.646C746.511 264.952 741.553 252.267 736.596 239.573C733.946 232.781 731.287 225.989 728.637 219.188C728.618 219.049 728.572 218.901 728.461 218.752C721.382 207.365 714.302 195.977 707.223 184.589C702.303 176.676 697.383 168.763 692.463 160.841C692.417 160.776 692.37 160.711 692.315 160.655C692.315 160.655 692.315 160.646 692.305 160.637C683.595 150.722 674.895 140.808 666.185 130.894C659.43 123.203 652.685 115.512 645.93 107.822C645.874 107.738 645.809 107.655 645.717 107.581C645.633 107.479 645.541 107.405 645.439 107.358C635.283 99.0005 625.119 90.6334 614.954 82.2756C607.208 75.91 599.462 69.535 591.715 63.1694C591.65 63.1045 591.576 63.0397 591.484 62.9934C579.725 56.3127 567.967 49.632 556.208 42.9606C548.731 38.7168 541.253 34.4638 533.776 30.22C533.609 30.0996 533.442 30.044 533.294 30.0347C520.118 25.6797 506.951 21.3155 493.794 16.9513C487.919 15.0055 482.045 13.0596 476.179 11.1138C476.087 11.0768 475.985 11.049 475.892 11.0397C475.827 11.0304 475.753 11.0304 475.688 11.0304C461.789 9.52936 447.891 8.01902 433.992 6.51795C428.34 5.89714 422.688 5.28559 417.035 4.67405C403.461 3.70113 389.877 2.73748 376.303 1.76457C368.093 1.18082 359.893 0.597071 351.693 0.00405644C351.47 -0.0144765 351.285 0.0318546 351.146 0.115247C337.562 3.56215 323.978 7.01831 310.404 10.4652C305.586 11.6883 300.767 12.9207 295.958 14.1438C295.81 14.1252 295.671 14.1623 295.514 14.2364C295.467 14.2549 295.421 14.2642 295.384 14.292C283.301 17.5814 271.228 20.8708 259.145 24.1601C246.367 27.6441 233.59 31.1188 220.812 34.6028C220.645 34.5935 220.46 34.6398 220.275 34.7696C220.191 34.8066 220.127 34.8622 220.062 34.9178C209.721 42.034 199.371 49.1502 189.021 56.2756C178.078 63.7995 167.144 71.3234 156.211 78.838C156.192 78.8565 156.174 78.8658 156.155 78.875C145.073 87.2606 134 95.637 122.918 104.023C117.693 107.979 112.467 111.936 107.231 115.892C107.065 115.966 106.907 116.105 106.787 116.318C99.3184 126.39 91.8501 136.472 84.3818 146.553C76.2278 157.561 68.0739 168.559 59.9107 179.567C59.8551 179.632 59.7995 179.697 59.7531 179.789C59.6975 179.864 59.6512 179.947 59.6234 180.021C52.952 192.141 46.2806 204.261 39.6092 216.39C36.5885 221.866 33.5771 227.333 30.5657 232.809C30.4545 232.911 30.3711 233.05 30.3248 233.235C30.2507 233.374 30.2136 233.513 30.2136 233.643C26.4609 245.837 22.7175 258.03 18.9648 270.224C15.416 281.77 11.8579 293.324 8.3091 304.869C8.27204 304.962 8.23498 305.055 8.21644 305.166C8.18865 305.286 8.17938 305.388 8.17938 305.49C6.31695 319.222 4.45451 332.954 2.59207 346.686C1.75814 352.876 0.914948 359.065 0.0717571 365.255C0.0346937 365.338 0.0254272 365.449 0.016162 365.561C-0.0116338 365.718 -0.00236974 365.857 0.0346937 365.987C1.01687 379.404 2.00832 392.812 2.9905 406.228C3.61132 414.735 4.24139 423.241 4.86221 431.756C4.86221 431.821 4.88074 431.876 4.89 431.932C4.89927 431.96 4.89 431.988 4.89927 432.015C7.00262 446.016 9.11524 460.017 11.2186 474.017C11.9043 478.539 12.5807 483.07 13.2663 487.592C13.2478 487.731 13.2663 487.87 13.3312 488.037C13.359 488.204 13.4146 488.342 13.4887 488.454C18.446 501.176 23.4032 513.898 28.3604 526.62C31.0012 533.393 33.642 540.166 36.292 546.949C36.3105 547.181 36.4124 547.357 36.5514 547.477C43.575 558.763 50.5985 570.049 57.6127 581.335C62.5236 589.229 67.4438 597.133 72.3547 605.027C72.401 605.222 72.5215 605.389 72.6883 605.5C81.4167 615.424 90.1451 625.347 98.8736 635.271C105.591 642.916 112.309 650.551 119.027 658.195C119.082 658.269 119.147 658.352 119.24 658.427C119.314 658.51 119.388 658.575 119.472 658.621C119.481 658.621 119.481 658.63 119.481 658.63C129.645 666.997 139.801 675.365 149.956 683.732C157.684 690.097 165.421 696.472 173.149 702.838C173.214 702.903 173.288 702.968 173.38 703.023C185.139 709.713 196.897 716.403 208.655 723.102C216.133 727.355 223.611 731.618 231.088 735.88C231.171 735.926 231.246 735.954 231.32 735.973C231.32 735.973 231.32 735.973 231.329 735.982C244.598 740.346 257.866 744.719 271.135 749.084C277.047 751.03 282.949 752.975 288.861 754.921C289 754.968 289.139 754.977 289.259 754.968C303.158 756.478 317.057 757.988 330.965 759.489C336.496 760.092 342.028 760.694 347.56 761.296C347.653 761.324 347.755 761.342 347.856 761.342C347.94 761.352 348.014 761.352 348.088 761.342C361.588 762.306 375.098 763.279 388.598 764.233C396.734 764.826 404.851 765.401 412.986 765.985C413.06 766.003 413.144 766.003 413.236 765.994C413.403 765.994 413.551 765.966 413.672 765.901C427.265 762.454 440.867 758.998 454.46 755.542C459.399 754.282 464.328 753.031 469.267 751.78C481.424 748.481 493.571 745.183 505.728 741.893C518.524 738.419 531.33 734.944 544.135 731.469C544.265 731.469 544.404 731.423 544.561 731.34C544.663 731.293 544.756 731.228 544.83 731.164C555.134 724.057 565.428 716.959 575.732 709.861C586.702 702.3 597.673 694.739 608.644 687.179C608.653 687.169 608.662 687.169 608.672 687.16C608.792 687.104 608.894 687.03 608.968 686.938C619.985 678.645 630.993 670.342 642.01 662.049C647.283 658.074 652.546 654.109 657.818 650.143C657.883 650.087 657.948 650.032 657.994 649.967C658.059 649.911 658.114 649.856 658.17 649.782C665.61 639.728 673.06 629.665 680.501 619.612C688.682 608.558 696.864 597.494 705.046 586.44C705.102 586.375 705.157 586.31 705.213 586.218C705.268 586.144 705.305 586.06 705.333 585.986C712.023 573.811 718.695 561.645 725.375 549.469C728.405 543.947 731.435 538.415 734.465 532.893C734.474 532.883 734.474 532.874 734.484 532.865C734.484 532.846 734.493 532.837 734.502 532.819C734.521 532.772 734.548 532.726 734.558 532.67C734.567 532.661 734.567 532.661 734.567 532.652C738.347 520.356 742.128 508.07 745.908 495.774C749.457 484.228 753.006 472.674 756.555 461.129C756.583 461.082 756.592 461.045 756.61 461.008C756.657 460.916 756.666 460.804 756.685 460.684C756.694 460.628 756.694 460.563 756.694 460.508C758.575 446.776 760.456 433.053 762.346 419.321C763.198 413.141 764.042 406.951 764.894 400.762ZM703.489 585.115C692.407 593.473 681.335 601.821 670.253 610.179C666.528 612.987 662.803 615.794 659.078 618.602C662.831 608.456 666.583 598.319 670.336 588.182C675.831 573.357 681.316 558.541 686.811 543.715C687.126 542.835 687.45 541.964 687.774 541.093C699.051 532.55 710.337 524.007 721.613 515.473C723.559 514 725.514 512.526 727.46 511.053C723.985 521.774 720.52 532.504 717.045 543.224C712.579 557.021 708.113 570.818 703.647 584.624C703.6 584.782 703.545 584.958 703.489 585.115ZM607.643 685.372C594.615 688.68 581.588 691.978 568.56 695.286C561.166 697.158 553.762 699.039 546.35 700.911C553.216 692.099 560.082 683.278 566.948 674.466C576.13 662.68 585.303 650.884 594.486 639.098C594.736 638.774 594.986 638.459 595.236 638.134C608.394 634.799 621.551 631.463 634.709 628.127C641.288 626.45 647.876 624.792 654.454 623.114C647.561 632.278 640.676 641.442 633.792 650.597C625.128 662.114 616.464 673.641 607.801 685.159C607.754 685.233 607.699 685.307 607.643 685.372ZM2.04538 365.783C6.17796 353.07 10.3013 340.367 14.4338 327.663C16.88 320.149 19.3169 312.634 21.7631 305.119C23.4402 316.266 25.1081 327.422 26.7852 338.578C28.7125 351.412 30.6398 364.254 32.5764 377.087C32.5671 377.115 32.5671 377.143 32.5764 377.171C27.5172 390.05 22.4673 402.93 17.4174 415.809C15.5087 420.683 13.5999 425.557 11.6911 430.431C9.90283 418.441 8.11452 406.469 6.32621 394.489C4.89927 384.917 3.47233 375.355 2.04538 365.783ZM157.165 80.617C166.199 74.3996 175.234 68.1915 184.258 61.9741C180.515 64.8095 176.772 67.6356 173.028 70.4616C172.926 70.508 172.843 70.5728 172.76 70.6562C163.503 77.0497 154.237 83.4431 144.98 89.8365C149.048 86.7603 153.107 83.684 157.165 80.617ZM656.206 620.603C643.104 623.921 630.011 627.247 616.918 630.573C610.08 632.306 603.242 634.039 596.413 635.772C600.796 625.811 605.179 615.859 609.571 605.908C616.26 590.73 622.95 575.553 629.64 560.375C630.363 558.726 631.095 557.077 631.818 555.427C645.346 552.008 658.874 548.598 672.402 545.179C676.711 544.095 681.029 543.002 685.337 541.908C681.409 552.518 677.48 563.127 673.551 573.737C668.066 588.562 662.581 603.387 657.086 618.213C656.799 619.01 656.502 619.806 656.206 620.603ZM543.32 701.568C530.718 700.67 518.107 699.762 505.506 698.863C493.803 698.029 482.091 697.186 470.379 696.352C477.625 687.531 484.871 678.7 492.117 669.87C501.846 658.028 511.566 646.186 521.285 634.335C521.628 633.918 521.971 633.501 522.314 633.084C535.156 634.002 547.999 634.919 560.841 635.836C571.469 636.596 582.097 637.356 592.725 638.116C585.646 647.206 578.567 656.295 571.488 665.385C562.315 677.181 553.132 688.967 543.95 700.753C543.746 701.022 543.533 701.3 543.32 701.568ZM254.012 48.2421C265.539 48.0846 277.065 47.9178 288.592 47.751C304.909 47.5286 321.226 47.297 337.553 47.0561C338.554 47.0468 339.554 47.0283 340.564 47.019C334.078 58.7867 327.601 70.5543 321.124 82.3219C320.819 82.8871 320.504 83.4524 320.198 84.0176C309.162 85.2036 298.136 86.3804 287.1 87.5664C270.051 89.401 253.002 91.2264 235.943 93.0611C233.636 93.3112 231.32 93.5614 229.013 93.8116C235.564 81.8586 242.124 69.9149 248.675 57.962C250.463 54.7282 252.233 51.4852 254.012 48.2421ZM377.09 20.9078C388.144 24.8921 399.199 28.8765 410.253 32.8608C425.161 38.2442 440.07 43.6184 454.979 48.9926C455.405 49.1409 455.831 49.2984 456.258 49.4559C448.706 55.1822 441.154 60.9085 433.612 66.6348C422.78 64.0682 411.948 61.4923 401.117 58.9256C384.438 54.9691 367.769 51.0126 351.09 47.0468C348.913 46.5372 346.745 46.0183 344.576 45.5087C355.047 37.5864 365.517 29.6548 375.988 21.7325C376.358 21.4545 376.72 21.1765 377.09 20.9078ZM678.833 148.48C669.252 149.666 659.671 150.852 650.09 152.038C644.697 145.904 639.305 139.761 633.903 133.627C638.6 126.863 643.298 120.099 647.987 113.335C657.151 123.768 666.305 134.201 675.46 144.635C676.59 145.913 677.712 147.192 678.833 148.48ZM686.014 539.666C672.56 543.067 659.106 546.467 645.652 549.859C641.241 550.97 636.831 552.092 632.42 553.203C634.57 542.816 636.719 532.429 638.878 522.052C642.418 504.993 645.958 487.935 649.488 470.876C650.174 467.587 650.85 464.307 651.536 461.027C665.11 457.58 678.694 454.124 692.268 450.668C693.195 450.427 694.121 450.195 695.048 449.954C693.945 460.916 692.833 471.868 691.731 482.829C690.044 499.647 688.349 516.455 686.662 533.263C686.449 535.404 686.227 537.535 686.014 539.666ZM594.041 636.198C581.263 635.28 568.486 634.372 555.699 633.455C544.969 632.686 534.23 631.917 523.491 631.157C528.615 621.595 533.73 612.032 538.854 602.47C546.887 587.459 554.921 572.458 562.954 557.457C564.112 555.288 565.28 553.111 566.438 550.943C579.809 551.897 593.179 552.861 606.55 553.815C614.241 554.371 621.931 554.918 629.622 555.474C625.156 565.62 620.68 575.757 616.214 585.912C609.524 601.089 602.834 616.267 596.144 631.444C595.44 633.029 594.736 634.613 594.041 636.198ZM468.044 696.046C456.869 692.358 445.685 688.67 434.501 684.973C419.648 680.072 404.786 675.17 389.933 670.259C389.553 670.139 389.182 670.018 388.812 669.898C396.372 661.262 403.933 652.626 411.494 644C421.761 632.26 432.037 620.52 442.313 608.789C442.757 608.28 443.211 607.77 443.656 607.251C455.062 611.022 466.459 614.794 477.866 618.556C491.968 623.216 506.071 627.877 520.174 632.538C512.835 641.489 505.487 650.43 498.139 659.381C488.419 671.232 478.7 683.074 468.97 694.916C468.665 695.295 468.359 695.675 468.044 696.046ZM342.788 47.1487C353.518 49.6968 364.248 52.2357 374.987 54.7838C391.656 58.7496 408.335 62.7061 425.013 66.6626C427.45 67.2371 429.878 67.8116 432.305 68.3953C427.571 77.0033 422.836 85.6113 418.101 94.2193C407.353 93.0796 396.604 91.9492 385.856 90.8094C368.325 88.9655 350.803 87.1124 333.281 85.2685C329.668 84.8793 326.045 84.4994 322.431 84.1195C328.945 72.287 335.459 60.4545 341.973 48.622C342.241 48.1309 342.51 47.6398 342.788 47.1487ZM583.626 133.368C587.657 143.421 591.678 153.465 595.709 163.519C591.224 156.643 586.749 149.759 582.273 142.884C573.239 129.022 564.205 115.16 555.18 101.298C554.504 100.27 553.836 99.2414 553.169 98.2129C558.784 98.5928 564.4 98.9819 570.015 99.3711C574.555 110.713 579.095 122.035 583.626 133.368ZM631.225 133.84C622.302 144.598 613.388 155.355 604.465 166.122C603.752 166.984 603.029 167.846 602.315 168.708C605.132 156.254 607.949 143.81 610.775 131.357C611.683 127.317 612.591 123.286 613.509 119.256C619.42 124.12 625.323 128.976 631.225 133.84ZM630.307 553.509C617.011 552.555 603.724 551.601 590.427 550.646C582.69 550.099 574.953 549.544 567.216 548.988C570.589 538.953 573.953 528.927 577.325 518.892C582.95 502.158 588.574 485.414 594.189 468.68C595.449 464.918 596.719 461.166 597.979 457.413C611.952 458.423 625.943 459.433 639.925 460.443C643.104 460.675 646.282 460.897 649.469 461.129C647.283 471.664 645.096 482.199 642.909 492.725C639.379 509.784 635.83 526.842 632.3 543.91C631.633 547.107 630.975 550.303 630.307 553.509ZM320.884 91.875C321.152 89.9292 321.412 87.9926 321.68 86.0468C332.327 87.1772 342.983 88.2984 353.629 89.4196C371.151 91.2727 388.682 93.1166 406.204 94.9698C409.984 95.3682 413.755 95.7667 417.536 96.1651C416.035 107.127 414.534 118.088 413.032 129.05C402.451 129.494 391.86 129.93 381.278 130.365C363.534 131.097 345.799 131.839 328.055 132.571C323.784 132.747 319.512 132.923 315.241 133.099C317.122 119.358 319.003 105.616 320.884 91.875ZM522.184 112.408C530.403 118.866 538.622 125.315 546.841 131.774C560.795 142.735 574.759 153.697 588.713 164.658C589.223 165.057 589.723 165.446 590.233 165.844C584.164 162.518 578.094 159.191 572.035 155.865C556.561 147.387 541.096 138.899 525.622 130.421C522.203 128.54 518.774 126.659 515.346 124.778C517.625 120.655 519.905 116.531 522.184 112.408ZM557.793 442.282C552.233 440.447 546.674 438.613 541.114 436.787C544.747 426.762 548.379 416.745 552.011 406.72C558.025 390.106 564.047 373.501 570.061 356.879C571.404 353.172 572.748 349.457 574.092 345.75C586.925 349.966 599.749 354.191 612.573 358.407C612.721 358.454 612.869 358.509 613.017 358.556C611.229 368.97 609.441 379.376 607.662 389.791C604.66 407.294 601.667 424.807 598.665 442.3C597.933 446.553 597.21 450.797 596.487 455.041C583.589 450.788 570.691 446.535 557.793 442.282ZM592.892 172.794C582.931 174.425 572.97 176.046 563.01 177.677C549.908 179.827 536.787 181.976 523.676 184.117C521.165 177.668 518.645 171.219 516.134 164.76C527.466 165.946 538.798 167.132 550.139 168.318C564.39 169.81 578.641 171.302 592.892 172.794ZM560.443 180.123C571.794 178.27 583.154 176.407 594.514 174.554C584.775 179.688 575.027 184.83 565.289 189.963C555.727 195.013 546.164 200.054 536.593 205.095C532.627 198.729 528.661 192.354 524.686 185.979C536.611 184.024 548.527 182.078 560.443 180.123ZM571.358 189.028C579.586 184.691 587.805 180.355 596.033 176.018C588.546 184.487 581.069 192.956 573.591 201.416C566.827 209.079 560.063 216.732 553.299 224.386C548.138 218.493 542.986 212.609 537.834 206.716C549.009 200.823 560.184 194.921 571.358 189.028ZM580.114 197.061C585.878 190.538 591.641 184.015 597.404 177.492C593.365 187.758 589.325 198.025 585.285 208.301C581.06 219.03 576.834 229.77 572.618 240.509C566.651 235.598 560.693 230.696 554.735 225.785C563.186 216.214 571.655 206.633 580.114 197.061ZM588.166 206.429C591.743 197.33 595.32 188.231 598.906 179.141C598.127 189.222 597.349 199.303 596.58 209.375C595.468 223.765 594.356 238.146 593.253 252.526C586.934 248.922 580.606 245.308 574.286 241.704C578.91 229.946 583.543 218.187 588.166 206.429ZM597.97 217.372C598.906 205.196 599.841 193.012 600.777 180.827C602.251 189.648 603.733 198.469 605.206 207.291C607.921 223.543 610.645 239.795 613.36 256.057C613.564 257.243 613.759 258.438 613.963 259.624C607.708 257.576 601.444 255.519 595.181 253.472C596.107 241.435 597.043 229.408 597.97 217.372ZM564.881 167.855C549.176 166.206 533.461 164.566 517.755 162.926C516.995 162.842 516.236 162.768 515.476 162.685C514.577 156.653 513.688 150.621 512.779 144.598C523.055 147.998 533.34 151.408 543.616 154.809C559.516 160.081 575.417 165.353 591.326 170.616C582.505 169.699 573.693 168.772 564.881 167.855ZM513.938 164.64C516.532 171.293 519.127 177.936 521.721 184.58C510.982 187.804 500.243 191.038 489.504 194.263C473.548 199.053 457.583 203.844 441.627 208.643C439.968 209.134 438.319 209.635 436.67 210.135C431.703 197.367 426.727 184.608 421.77 171.849C421.594 171.413 421.427 170.968 421.251 170.524C432.009 169.847 442.767 169.162 453.515 168.485C470.74 167.392 487.965 166.298 505.181 165.205C508.109 165.01 511.028 164.834 513.938 164.64ZM469.61 202.333C485.566 197.534 501.531 192.743 517.487 187.953C519.191 187.434 520.896 186.924 522.601 186.415C526.678 192.975 530.764 199.535 534.851 206.095C525.084 212.109 515.318 218.113 505.552 224.127C491.848 232.568 478.144 241 464.439 249.432C463.587 249.96 462.735 250.479 461.882 251.007C454.534 239.174 447.177 227.333 439.82 215.5C439.088 214.314 438.347 213.128 437.615 211.942C448.28 208.736 458.945 205.539 469.61 202.333ZM492.246 234.68C505.951 226.239 519.655 217.807 533.359 209.375C534.258 208.819 535.156 208.273 536.046 207.717C541.346 213.777 546.646 219.827 551.946 225.887C544.126 234.384 536.305 242.881 528.494 251.387C517.718 263.099 506.933 274.811 496.166 286.532C495.619 287.134 495.063 287.727 494.516 288.32C485.288 277.832 476.059 267.343 466.83 256.854C465.588 255.436 464.347 254.028 463.105 252.619C472.816 246.633 482.536 240.657 492.246 234.68ZM519.303 264.34C530.079 252.619 540.855 240.907 551.631 229.186C552.215 228.546 552.799 227.916 553.392 227.277C559.516 232.318 565.65 237.368 571.775 242.408C566.596 252.591 561.407 262.765 556.218 272.948C548.814 287.477 541.411 302.006 534.008 316.535C533.479 317.582 532.942 318.629 532.405 319.676C521.693 310.874 510.973 302.071 500.252 293.259C498.816 292.082 497.389 290.906 495.953 289.72C503.736 281.26 511.519 272.8 519.303 264.34ZM549.556 290.442C556.959 275.913 564.362 261.385 571.766 246.865C572.322 245.753 572.887 244.65 573.452 243.548C579.966 247.254 586.471 250.97 592.985 254.685C590.501 265.564 588.009 276.442 585.526 287.32C581.754 303.841 577.974 320.362 574.203 336.874C573.74 338.903 573.276 340.923 572.813 342.952C560.869 336.142 548.926 329.322 536.982 322.511C536.009 321.956 535.036 321.4 534.063 320.844C539.224 310.707 544.395 300.579 549.556 290.442ZM582.088 311.355C585.869 294.834 589.64 278.313 593.42 261.802C593.902 259.689 594.384 257.586 594.866 255.482C601.315 257.595 607.764 259.707 614.213 261.82C614.092 272.707 613.972 283.604 613.851 294.501C613.657 311.967 613.462 329.442 613.268 346.908C613.231 350.105 613.193 353.293 613.156 356.489C600.462 352.31 587.759 348.132 575.055 343.953C574.926 343.916 574.796 343.869 574.675 343.823C577.14 333 579.614 322.178 582.088 311.355ZM616.075 260.152C614.194 248.894 612.313 237.636 610.432 226.378C607.968 211.692 605.512 196.996 603.057 182.31C605.827 189.574 608.588 196.829 611.359 204.094C617.558 220.355 623.757 236.626 629.955 252.888C631.04 255.732 632.124 258.568 633.208 261.412C627.5 260.995 621.783 260.569 616.075 260.152ZM568.356 160.896C552.141 155.522 535.926 150.148 519.72 144.774C517.366 143.995 515.003 143.217 512.65 142.439C513.363 137.213 514.067 131.987 514.772 126.761C523.963 131.802 533.164 136.842 542.365 141.892C557.83 150.37 573.304 158.849 588.769 167.336C589.269 167.605 589.769 167.883 590.27 168.152C582.959 165.733 575.658 163.315 568.356 160.896ZM510.685 144.014C511.603 150.231 512.529 156.449 513.456 162.666C502.615 163.361 491.764 164.047 480.914 164.732C463.689 165.826 446.464 166.919 429.248 168.013C426.385 168.189 423.531 168.374 420.677 168.559C418.814 156.097 416.943 143.643 415.08 131.19C425.569 132.598 436.058 133.998 446.538 135.406C464.013 137.75 481.489 140.104 498.964 142.448C502.874 142.967 506.775 143.495 510.685 144.014ZM419.204 170.774C424.179 183.551 429.155 196.338 434.131 209.125C434.344 209.69 434.566 210.256 434.789 210.812C424.976 214.916 415.154 219.012 405.342 223.107C389.108 229.881 372.865 236.654 356.631 243.437C353.11 244.901 349.589 246.374 346.068 247.838C341.194 235.385 336.32 222.922 331.447 210.459C328.898 203.946 326.35 197.422 323.802 190.909C334.115 188.731 344.428 186.554 354.741 184.376C372.087 180.716 389.432 177.056 406.778 173.396C410.92 172.516 415.062 171.645 419.204 170.774ZM376.238 237.405C392.472 230.631 408.715 223.858 424.948 217.075C428.525 215.583 432.092 214.092 435.669 212.609C443.045 224.488 450.42 236.367 457.805 248.246C458.602 249.524 459.399 250.812 460.196 252.1C451.328 258.169 442.461 264.229 433.593 270.298C419.166 280.167 404.74 290.035 390.303 299.903C387.468 301.849 384.633 303.785 381.797 305.722C374.913 294.63 368.019 283.53 361.134 272.43C356.418 264.822 351.693 257.224 346.976 249.617C356.733 245.549 366.481 241.482 376.238 237.405ZM409.465 289.238C423.892 279.36 438.319 269.492 452.746 259.624C455.628 257.65 458.509 255.686 461.391 253.712C470.675 264.257 479.96 274.802 489.235 285.346C490.541 286.829 491.839 288.311 493.145 289.794C485.732 297.651 478.31 305.518 470.898 313.375C458.926 326.06 446.946 338.755 434.983 351.439C432.722 353.839 430.462 356.23 428.201 358.63C419.704 348.984 411.207 339.348 402.72 329.702C396.141 322.252 389.571 314.793 383.002 307.334C391.823 301.302 400.644 295.27 409.465 289.238ZM451.782 336.559C463.754 323.874 475.725 311.179 487.697 298.494C489.995 296.057 492.293 293.63 494.591 291.193C505.385 300.06 516.18 308.937 526.975 317.804C528.467 319.027 529.949 320.241 531.432 321.464C525.826 330.684 520.229 339.903 514.623 349.123C505.515 364.115 496.407 379.098 487.298 394.09C485.482 397.074 483.666 400.057 481.859 403.05C471.945 394.878 462.021 386.705 452.107 378.533C444.62 372.371 437.133 366.2 429.637 360.029C437.013 352.199 444.397 344.379 451.782 336.559ZM500.233 376.67C509.333 361.678 518.45 346.695 527.549 331.703C529.402 328.673 531.237 325.634 533.09 322.604C545.136 329.479 557.181 336.355 569.236 343.23C570.246 343.804 571.247 344.379 572.257 344.953C568.606 355.025 564.955 365.107 561.305 375.188C555.282 391.792 549.268 408.406 543.246 425.02C541.93 428.67 540.605 432.312 539.289 435.953C527.874 429.458 516.467 422.963 505.052 416.458C497.871 412.372 490.69 408.276 483.499 404.19C489.087 395.017 494.655 385.844 500.233 376.67ZM615.519 324.467C615.714 306.991 615.908 289.525 616.103 272.059C616.14 268.76 616.177 265.462 616.214 262.172C622.098 262.598 627.973 263.034 633.847 263.469C635.691 273.995 637.535 284.521 639.37 295.038C642.427 312.504 645.485 329.961 648.533 347.418C649.238 351.439 649.933 355.452 650.637 359.473C638.814 358.63 626.99 357.787 615.167 356.934C615.278 346.112 615.399 335.289 615.519 324.467ZM635.311 261.338C631.456 251.229 627.611 241.12 623.757 231.011C617.66 215.018 611.563 199.025 605.466 183.033C609.061 189.074 612.665 195.115 616.26 201.166C625.332 216.399 634.403 231.641 643.474 246.884C645.596 250.451 647.718 254.018 649.84 257.586C645.003 258.827 640.157 260.087 635.311 261.338ZM510.704 142.013C500.113 140.586 489.513 139.168 478.922 137.741C461.447 135.397 443.971 133.052 426.496 130.708C422.669 130.199 418.851 129.68 415.025 129.17C416.516 118.311 417.999 107.451 419.491 96.5913C429.507 99.7325 439.533 102.883 449.549 106.024C466.496 111.333 483.434 116.652 500.372 121.961C504.542 123.268 508.712 124.574 512.881 125.881C512.149 131.255 511.427 136.638 510.704 142.013ZM413.051 131.06C414.932 143.653 416.813 156.236 418.703 168.828C408.307 171.015 397.92 173.211 387.524 175.407C370.178 179.067 352.832 182.727 335.496 186.387C331.419 187.248 327.342 188.11 323.265 188.972C321.226 175.277 319.188 161.591 317.149 147.906C316.519 143.643 315.88 139.372 315.25 135.11C325.739 134.674 336.228 134.239 346.717 133.803C364.461 133.071 382.196 132.339 399.94 131.607C404.304 131.422 408.678 131.246 413.051 131.06ZM321.866 191.446C326.74 203.918 331.623 216.39 336.496 228.861C339.082 235.468 341.667 242.075 344.252 248.681C334.875 253.685 325.498 258.679 316.13 263.683C300.462 272.031 284.793 280.389 269.134 288.747C265.409 290.73 261.693 292.712 257.978 294.686C253.53 283.298 249.092 271.901 244.644 260.504C239.956 248.477 235.267 236.45 230.578 224.423C240.511 220.837 250.444 217.251 260.377 213.656C277.01 207.652 293.633 201.638 310.256 195.634C314.129 194.235 317.993 192.836 321.866 191.446ZM286.831 281.575C302.5 273.226 318.169 264.869 333.837 256.511C337.608 254.5 341.38 252.489 345.151 250.479C352.054 261.607 358.966 272.735 365.869 283.864C370.632 291.545 375.395 299.226 380.157 306.898C371.725 313.227 363.284 319.556 354.852 325.884C340.629 336.54 326.425 347.196 312.201 357.851C308.736 360.455 305.271 363.059 301.796 365.663C295.578 355.637 289.361 345.621 283.144 335.595C275.166 322.743 267.188 309.891 259.21 297.04C259.099 296.854 258.988 296.669 258.876 296.484C268.198 291.517 277.519 286.541 286.831 281.575ZM328.167 348.382C342.38 337.726 356.603 327.061 370.817 316.405C374.329 313.774 377.841 311.133 381.353 308.501C389.886 318.184 398.42 327.867 406.954 337.559C413.57 345.065 420.186 352.57 426.802 360.085C419.472 367.664 412.134 375.253 404.795 382.841C392.444 395.61 380.092 408.369 367.741 421.137C364.711 424.278 361.681 427.41 358.642 430.542C350.988 421.841 343.335 413.141 335.681 404.44C325.229 392.552 314.777 380.673 304.325 368.785C303.881 368.285 303.436 367.775 302.991 367.266C311.377 360.974 319.781 354.673 328.167 348.382ZM381.983 409.305C394.334 396.536 406.685 383.768 419.037 371C422.113 367.822 425.18 364.653 428.247 361.474C438.226 369.693 448.196 377.912 458.176 386.131C465.709 392.33 473.233 398.538 480.766 404.737C474.678 413.428 468.591 422.119 462.503 430.811C452.31 445.358 442.109 459.915 431.916 474.462C429.47 477.965 427.015 481.467 424.559 484.97C415.608 477.603 406.648 470.237 397.697 462.871C385.606 452.928 373.523 442.986 361.44 433.044C360.986 432.682 360.541 432.312 360.087 431.941C367.389 424.399 374.69 416.847 381.983 409.305ZM444.37 460.174C454.571 445.618 464.764 431.07 474.956 416.514C477.439 412.974 479.923 409.425 482.406 405.876C493.896 412.418 505.385 418.969 516.884 425.501C524.093 429.606 531.302 433.711 538.501 437.816C533.804 447.267 529.097 456.718 524.39 466.16C516.486 482.042 508.582 497.914 500.678 513.796C498.779 517.613 496.87 521.431 494.97 525.248C484.583 519.337 474.196 513.425 463.809 507.514C451.273 500.37 438.745 493.235 426.209 486.1C432.268 477.455 438.319 468.819 444.37 460.174ZM510.834 497.896C518.737 482.014 526.641 466.142 534.545 450.26C536.472 446.387 538.409 442.514 540.336 438.64C553.327 442.921 566.318 447.202 579.308 451.492C584.868 453.327 590.437 455.161 595.996 456.996C592.596 467.114 589.204 477.233 585.804 487.351C580.179 504.094 574.555 520.838 568.94 537.572C567.698 541.26 566.457 544.948 565.224 548.635C553.281 544.688 541.337 540.75 529.402 536.812C518.534 533.226 507.674 529.64 496.805 526.064C501.484 516.668 506.154 507.282 510.834 497.896ZM603.752 424.436C606.754 406.923 609.756 389.42 612.749 371.917C613.49 367.59 614.231 363.263 614.973 358.936C626.925 359.788 638.878 360.64 650.831 361.493C650.702 372.112 650.581 382.721 650.451 393.34C650.248 411.093 650.044 428.837 649.831 446.581C649.784 450.769 649.738 454.948 649.682 459.137C635.802 458.136 621.913 457.126 608.023 456.125C604.826 455.893 601.639 455.662 598.442 455.439C600.212 445.099 601.982 434.767 603.752 424.436ZM652.638 359.325C650.822 348.901 648.997 338.477 647.171 328.052C644.114 310.586 641.065 293.129 638.007 275.673C637.285 271.54 636.562 267.407 635.839 263.275C640.806 261.996 645.781 260.708 650.748 259.43C654.213 269.409 657.67 279.388 661.135 289.367C666.945 306.12 672.764 322.882 678.573 339.635C679.963 343.656 681.362 347.668 682.752 351.69C672.717 354.238 662.682 356.777 652.638 359.325ZM651.684 256.752C646.31 247.717 640.926 238.674 635.543 229.631C626.471 214.388 617.409 199.155 608.329 183.913C608.107 183.542 607.893 183.172 607.671 182.801C612.026 187.999 616.381 193.206 620.736 198.405C632.096 211.979 643.456 225.554 654.816 239.128C657.447 242.26 660.069 245.401 662.692 248.533C659.022 251.276 655.362 254.018 651.684 256.752ZM575.454 151.705C561.49 140.743 547.536 129.782 533.572 118.82C530.218 116.179 526.864 113.548 523.509 110.916C527.141 108.155 530.774 105.394 534.406 102.642C541.745 110.583 549.083 118.514 556.422 126.455C567.995 138.983 579.577 151.51 591.159 164.038C585.924 159.923 580.689 155.819 575.454 151.705ZM513.493 123.972C503.356 120.794 493.228 117.606 483.082 114.428C466.144 109.119 449.206 103.809 432.259 98.4908C428.219 97.2214 424.17 95.952 420.13 94.6918C424.837 86.1395 429.544 77.5871 434.242 69.0347C443.841 73.7417 453.441 78.4488 463.031 83.1559C478.839 90.9021 494.637 98.6576 510.435 106.404C513.789 108.044 517.134 109.684 520.489 111.333C518.154 115.549 515.828 119.756 513.493 123.972ZM313.267 135.36C315.305 149.045 317.344 162.731 319.382 176.417C320.031 180.772 320.68 185.145 321.338 189.509C311.33 193.123 301.333 196.737 291.335 200.35C274.702 206.355 258.08 212.359 241.457 218.372C237.658 219.744 233.868 221.106 230.078 222.477C228.151 209.672 226.224 196.857 224.296 184.052C222.888 174.712 221.489 165.372 220.08 156.023C230.597 153.697 241.123 151.362 251.64 149.027C268.754 145.228 285.877 141.438 302.991 137.639C306.42 136.879 309.839 136.119 313.267 135.36ZM228.753 225.257C233.191 236.645 237.639 248.042 242.087 259.439C246.803 271.531 251.51 283.623 256.236 295.715C247.127 301.765 238.028 307.807 228.929 313.848C214.484 323.438 200.047 333.028 185.611 342.618C183.184 344.231 180.756 345.843 178.319 347.464C174.159 336.79 170.008 326.116 165.847 315.451C160.093 300.681 154.339 285.921 148.585 271.151C148.279 270.372 147.983 269.603 147.677 268.825C157.415 263.599 167.144 258.373 176.874 253.138C191.968 245.021 207.071 236.904 222.174 228.787C224.361 227.611 226.557 226.434 228.753 225.257ZM206.367 331.24C220.812 321.65 235.248 312.06 249.685 302.469C252.168 300.82 254.66 299.161 257.153 297.512C263.38 307.547 269.606 317.582 275.833 327.617C283.811 340.478 291.789 353.33 299.767 366.181C299.915 366.422 300.063 366.663 300.211 366.904C291.789 373.807 283.375 380.71 274.962 387.623C261.508 398.658 248.054 409.694 234.6 420.73C232.191 422.712 229.782 424.695 227.363 426.669C221.554 417.329 215.744 407.998 209.934 398.658C200.937 384.204 191.94 369.74 182.933 355.276C181.692 353.283 180.45 351.282 179.209 349.29C188.261 343.267 197.314 337.253 206.367 331.24ZM253.678 407.665C267.132 396.629 280.586 385.584 294.04 374.549C296.496 372.538 298.951 370.518 301.407 368.507C309.088 377.236 316.779 385.964 324.46 394.702C334.903 406.59 345.364 418.469 355.807 430.357C356.288 430.894 356.761 431.441 357.243 431.978C349.626 439.678 342.019 447.369 334.402 455.069C322.144 467.457 309.885 479.846 297.626 492.243C295.347 494.541 293.077 496.839 290.797 499.137C283.672 491.03 276.556 482.922 269.43 474.814C257.931 461.722 246.432 448.638 234.933 435.546C232.812 433.118 230.68 430.7 228.549 428.281C236.926 421.406 245.302 414.531 253.678 407.665ZM314.963 477.566C327.221 465.178 339.48 452.789 351.739 440.392C354.055 438.057 356.372 435.712 358.679 433.377C367.685 440.781 376.683 448.175 385.68 455.578C397.762 465.521 409.845 475.463 421.937 485.405C422.41 485.794 422.882 486.184 423.364 486.573C416.591 494.986 409.827 503.4 403.053 511.822C392.156 525.36 381.26 538.906 370.363 552.453C368.371 554.936 366.379 557.41 364.387 559.884C356.02 553 347.643 546.115 339.276 539.231C325.896 528.223 312.516 517.224 299.137 506.216C296.839 504.326 294.531 502.436 292.233 500.546C299.813 492.883 307.392 485.229 314.963 477.566ZM386.236 535.913C397.132 522.367 408.029 508.82 418.935 495.273C420.955 492.753 422.984 490.242 425.004 487.722C435.447 493.67 445.898 499.619 456.341 505.568C468.887 512.712 481.424 519.856 493.97 526.99C487.984 536.127 482.008 545.253 476.022 554.38C466.561 568.816 457.101 583.253 447.65 597.689C446.102 600.052 444.555 602.405 443.017 604.759C433.241 599.208 423.475 593.649 413.7 588.089C399.236 579.871 384.781 571.652 370.317 563.433C368.89 562.618 367.472 561.811 366.055 561.005C372.782 552.638 379.509 544.28 386.236 535.913ZM462.707 578.36C472.176 563.924 481.628 549.488 491.088 535.052C492.663 532.643 494.238 530.243 495.814 527.843C507.831 531.809 519.84 535.765 531.858 539.731C542.708 543.308 553.558 546.893 564.409 550.47C559.229 560.134 554.059 569.808 548.879 579.472C540.846 594.474 532.821 609.475 524.779 624.486C523.648 626.598 522.518 628.711 521.387 630.824C510.046 627.071 498.695 623.328 487.354 619.575C473.205 614.905 459.056 610.226 444.907 605.556C444.898 605.556 444.898 605.546 444.898 605.546C450.837 596.494 456.777 587.422 462.707 578.36ZM652.064 427.438C652.268 409.685 652.481 391.941 652.685 374.196C652.74 369.916 652.786 365.625 652.833 361.354C662.97 358.778 673.088 356.211 683.216 353.645C684.559 364.263 685.893 374.891 687.228 385.51C689.414 402.865 691.601 420.229 693.788 437.584C694.214 441.013 694.65 444.45 695.085 447.879C681.585 451.307 668.084 454.745 654.584 458.182C653.62 458.423 652.657 458.673 651.693 458.914C651.823 448.425 651.943 437.927 652.064 427.438ZM684.559 350.772C681.14 340.932 677.73 331.092 674.311 321.251C668.501 304.499 662.692 287.737 656.882 270.984C655.446 266.851 654.01 262.719 652.573 258.586C656.317 255.797 660.051 252.999 663.794 250.21C668.779 259.782 673.774 269.344 678.759 278.916C686.801 294.325 694.835 309.743 702.878 325.161C704.342 327.978 705.815 330.795 707.288 333.621C699.718 339.329 692.139 345.046 684.559 350.772ZM663.961 246.939C657.253 238.915 650.535 230.9 643.817 222.876C632.457 209.301 621.097 195.727 609.737 182.152C609.543 181.921 609.348 181.689 609.144 181.448C614.528 186.109 619.911 190.76 625.295 195.421C638.313 206.67 651.323 217.928 664.341 229.176C666.454 231.002 668.566 232.827 670.679 234.653C668.446 238.748 666.203 242.844 663.961 246.939ZM632.652 135.239C637.767 141.058 642.881 146.868 647.996 152.687C635.2 157.746 622.404 162.805 609.608 167.864C607.625 168.643 605.651 169.43 603.668 170.209C611.97 160.192 620.273 150.176 628.584 140.159C629.937 138.519 631.299 136.879 632.652 135.239ZM550.779 98.2221C556.978 107.738 563.176 117.254 569.375 126.761C577.279 138.899 585.183 151.047 593.096 163.185C588.241 157.931 583.385 152.678 578.53 147.424C566.651 134.572 554.782 121.73 542.912 108.878C540.744 106.543 538.585 104.199 536.417 101.854C541.198 100.641 545.988 99.436 550.779 98.2221ZM521.767 109.73C512.066 104.977 502.374 100.214 492.673 95.4609C476.865 87.7054 461.067 79.9591 445.268 72.2129C442.09 70.6469 438.903 69.0903 435.725 67.5336C443.267 61.8073 450.809 56.081 458.352 50.364C467.636 56.7204 476.921 63.0675 486.196 69.4239C500.15 78.9677 514.095 88.5208 528.05 98.0646C529.643 99.158 531.237 100.242 532.821 101.335C529.134 104.134 525.455 106.932 521.767 109.73ZM314.036 127.234C313.758 129.263 313.48 131.292 313.202 133.321C302.602 135.675 292.002 138.019 281.411 140.373C264.288 144.172 247.174 147.961 230.05 151.76C226.752 152.492 223.444 153.224 220.136 153.956C221.961 140.641 223.787 127.326 225.612 114.002C226.437 107.979 227.261 101.947 228.086 95.9242C239.038 94.7382 249.981 93.5707 260.933 92.3939C277.983 90.5593 295.041 88.7246 312.09 86.8993C314.62 86.6213 317.14 86.3526 319.67 86.0839C317.789 99.7973 315.917 113.52 314.036 127.234ZM218.162 156.68C220.08 169.467 222.008 182.254 223.926 195.032C225.343 204.446 226.761 213.869 228.179 223.283C218.394 228.546 208.609 233.8 198.824 239.063C183.721 247.18 168.627 255.297 153.524 263.414C151.42 264.544 149.308 265.675 147.204 266.814C145.388 254.732 143.572 242.649 141.756 230.566C139.847 217.872 137.948 205.178 136.039 192.484C146.37 187.98 156.711 183.477 167.052 178.965C182.442 172.256 197.833 165.539 213.233 158.83C214.873 158.117 216.513 157.394 218.162 156.68ZM134.084 193.753C134.121 193.725 134.158 193.698 134.204 193.66C136.002 205.669 137.809 217.678 139.606 229.677C141.524 242.427 143.442 255.186 145.351 267.936C136.011 275.274 126.662 282.603 117.313 289.942C105.165 299.477 93.0083 309.011 80.8608 318.546C80.731 318.657 80.6013 318.759 80.4716 318.861C78.6926 307.084 76.9135 295.307 75.1437 283.53C73.0496 269.678 70.9648 255.825 68.8707 241.963C78.4516 234.884 88.0418 227.796 97.6227 220.708C109.78 211.729 121.927 202.741 134.084 193.753ZM108.853 299.124C121 289.59 133.148 280.046 145.305 270.511C145.527 270.335 145.759 270.159 145.981 269.974C150.132 280.621 154.274 291.258 158.425 301.895C164.179 316.665 169.933 331.434 175.688 346.195C176.012 347.02 176.327 347.844 176.651 348.678C167.663 356.23 158.666 363.782 149.678 371.333C137.688 381.415 125.689 391.487 113.699 401.568C113.347 401.855 113.004 402.152 112.652 402.439C108.593 392.015 104.535 381.591 100.467 371.157C94.5001 355.841 88.5329 340.524 82.5657 325.208C82.019 323.818 81.4816 322.419 80.9349 321.029C90.2378 313.727 99.55 306.426 108.853 299.124ZM140.394 381.748C152.393 371.676 164.383 361.595 176.373 351.523C176.781 351.18 177.189 350.837 177.596 350.494C183.406 359.825 189.216 369.156 195.016 378.487C204.023 392.951 213.02 407.415 222.017 421.879C223.286 423.908 224.556 425.946 225.816 427.985C217.199 435.814 208.563 443.644 199.946 451.474C188.243 462.092 176.54 472.711 164.846 483.32C164.374 483.747 163.901 484.182 163.429 484.608C157.777 475.519 152.124 466.419 146.482 457.33C137.281 442.514 128.07 427.697 118.869 412.891C117.09 410.027 115.32 407.174 113.541 404.31C122.492 396.787 131.443 389.272 140.394 381.748ZM190.383 462.852C202.086 452.233 213.779 441.615 225.482 430.996C226.001 430.524 226.52 430.06 227.039 429.588C234.174 437.714 241.308 445.84 248.443 453.966C259.942 467.05 271.441 480.142 282.94 493.235C285.08 495.672 287.23 498.118 289.38 500.564C281.087 508.7 272.803 516.826 264.51 524.961C253.224 536.043 241.929 547.116 230.643 558.189C230.143 558.68 229.643 559.171 229.142 559.662C222.165 551.721 215.179 543.771 208.201 535.83C196.48 522.496 184.759 509.154 173.038 495.82C170.23 492.623 167.422 489.436 164.615 486.239C173.204 478.447 181.794 470.645 190.383 462.852ZM255.337 536.775C266.623 525.693 277.918 514.62 289.204 503.539C289.741 503.02 290.278 502.491 290.816 501.963C299.22 508.866 307.615 515.779 316.019 522.682C329.399 533.69 342.779 544.697 356.159 555.696C358.457 557.596 360.764 559.495 363.071 561.395C355.139 569.808 347.217 578.212 339.286 586.635C328.472 598.097 317.668 609.558 306.864 621.03C306.373 621.548 305.873 622.077 305.391 622.596C297.2 615.859 289.009 609.123 280.818 602.387C267.179 591.156 253.53 579.935 239.881 568.715C236.787 566.157 233.692 563.609 230.588 561.061C238.834 552.963 247.09 544.864 255.337 536.775ZM330.724 598.634C341.537 587.163 352.341 575.701 363.154 564.23C363.673 563.674 364.201 563.118 364.73 562.562C374.542 568.14 384.364 573.718 394.176 579.305C408.64 587.524 423.104 595.743 437.559 603.962C438.968 604.759 440.376 605.565 441.775 606.362C434.159 615.062 426.533 623.772 418.916 632.473C408.64 644.213 398.365 655.943 388.089 667.683C387.681 668.156 387.264 668.628 386.847 669.092C377.229 663.625 367.611 658.149 357.984 652.682C343.112 644.213 328.231 635.753 313.35 627.284C311.266 626.098 309.172 624.912 307.087 623.717C314.963 615.359 322.848 607.001 330.724 598.634ZM697.124 446.683C697.068 446.72 697.012 446.757 696.957 446.804C695.641 436.38 694.325 425.946 693.019 415.522C690.832 398.167 688.645 380.803 686.459 363.448C686.014 359.908 685.569 356.378 685.124 352.848C692.732 347.103 700.348 341.349 707.965 335.604C710.661 346.315 713.357 357.018 716.063 367.729C720.159 383.972 724.263 400.224 728.359 416.467C728.831 418.348 729.304 420.229 729.786 422.11C718.898 430.301 708.011 438.492 697.124 446.683ZM708.595 331.777C703.712 322.419 698.829 313.06 693.945 303.693C685.912 288.283 677.869 272.865 669.836 257.447C668.316 254.537 666.796 251.628 665.277 248.718C667.538 244.576 669.799 240.444 672.069 236.302C678.601 245.373 685.124 254.435 691.657 263.497C701.164 276.701 710.68 289.914 720.186 303.118C720.974 304.211 721.762 305.314 722.549 306.407C717.898 314.858 713.246 323.318 708.595 331.777ZM671.207 232.466C663.155 225.507 655.103 218.549 647.06 211.581C634.561 200.777 622.061 189.973 609.561 179.159C616.622 183.348 623.682 187.526 630.743 191.715C644.271 199.73 657.799 207.735 671.327 215.75C671.985 216.139 672.634 216.529 673.292 216.918C672.597 222.097 671.902 227.277 671.207 232.466ZM644.04 197.246C632.309 190.297 620.588 183.357 608.866 176.417C618.179 179.484 627.5 182.551 636.821 185.618C648.024 189.306 659.226 192.993 670.429 196.681C671.309 202.602 672.189 208.523 673.079 214.453C663.396 208.717 653.713 202.982 644.04 197.246ZM634.913 182.875C625.684 179.836 616.464 176.806 607.236 173.767C618.809 174.082 630.372 174.397 641.936 174.712C648.691 174.897 655.446 175.082 662.201 175.268C664.665 181.606 667.139 187.953 669.613 194.3C658.049 190.492 646.476 186.683 634.913 182.875ZM621.357 172.145C616.02 171.997 610.673 171.849 605.327 171.7C617.057 167.067 628.769 162.435 640.491 157.802C643.419 156.643 646.347 155.485 649.275 154.327C653.203 160.628 657.123 166.928 661.042 173.22C647.82 172.868 634.588 172.507 621.357 172.145ZM646.551 111.889C641.844 118.672 637.136 125.454 632.429 132.237C626.24 127.141 620.041 122.045 613.851 116.948C612.851 105.487 611.85 94.0247 610.858 82.5628C621.283 91.1338 631.707 99.7047 642.14 108.266C643.604 109.48 645.077 110.685 646.551 111.889ZM602.529 158.673C601.917 161.397 601.296 164.121 600.675 166.845C599.211 155.392 597.738 143.94 596.274 132.487C595.199 124.092 594.115 115.688 593.04 107.284C599.276 110.842 605.512 114.4 611.748 117.958C608.672 131.533 605.605 145.098 602.529 158.673ZM595.931 145.506C596.765 151.983 597.599 158.459 598.433 164.936C594.782 155.837 591.132 146.729 587.49 137.621C582.468 125.093 577.446 112.575 572.433 100.048C578.586 102.095 584.738 104.134 590.891 106.182C592.577 119.293 594.254 132.395 595.931 145.506ZM551.65 96.1003C542.792 87.9 533.924 79.709 525.066 71.5087C514.484 61.7332 503.912 51.9485 493.33 42.173C504.802 42.9884 516.273 43.813 527.744 44.6284C535.833 55.0618 543.913 65.4951 552.002 75.9285C557.515 83.0354 563.028 90.1516 568.551 97.2678C562.917 96.8786 557.283 96.4894 551.65 96.1003ZM516.717 66.5236C527.54 76.54 538.362 86.5472 549.185 96.5543C544.357 97.7681 539.539 98.9912 534.721 100.214C525.362 93.8116 516.013 87.4089 506.655 81.0062C492.71 71.4531 478.764 61.9092 464.81 52.3561C463.448 51.4296 462.086 50.4937 460.724 49.5671C470.573 47.0653 480.423 44.5636 490.273 42.071C499.094 50.225 507.906 58.379 516.717 66.5236ZM220.553 136.249C219.71 142.355 218.876 148.452 218.042 154.559C207.645 159.09 197.24 163.63 186.844 168.161C171.444 174.869 156.053 181.587 140.653 188.296C139.162 188.953 137.66 189.602 136.159 190.251C137.892 177.575 139.625 164.899 141.348 152.224C142.562 143.301 143.776 134.387 144.99 125.464C155.859 121.581 166.727 117.69 177.596 113.807C192.857 108.35 208.118 102.892 223.379 97.4438C224.25 97.1288 225.121 96.823 225.992 96.5079C224.185 109.758 222.369 123.008 220.553 136.249ZM137.688 164.38C136.465 173.359 135.233 182.338 134.01 191.325C124.382 198.442 114.746 205.567 105.119 212.693C93.1102 221.56 81.1109 230.437 69.1024 239.313C70.7888 227.036 72.4659 214.759 74.143 202.482C75.5144 192.493 76.8764 182.504 78.2478 172.516C88.1437 165.52 98.0397 158.515 107.936 151.519C119.564 143.301 131.174 135.082 142.794 126.863C141.089 139.372 139.393 151.881 137.688 164.38ZM67.1566 243.983C68.9078 255.547 70.6498 267.12 72.3918 278.684C74.4951 292.592 76.5892 306.5 78.6833 320.408C70.5664 330.36 62.4495 340.311 54.3326 350.263C47.6427 358.472 40.9527 366.673 34.2535 374.882C32.4837 363.068 30.7047 351.263 28.9349 339.459C27.0076 326.653 25.0803 313.848 23.1623 301.042C30.9456 290.943 38.7382 280.843 46.5215 270.743C53.406 261.829 60.2813 252.906 67.1566 243.983ZM59.0119 347.696C65.813 339.348 72.6234 331.008 79.4246 322.66C83.4552 332.991 87.4766 343.313 91.498 353.645C97.4652 368.961 103.432 384.278 109.409 399.594C109.965 401.03 110.521 402.467 111.077 403.893C102.571 413.586 94.0646 423.268 85.5585 432.96C78.8223 440.633 72.086 448.305 65.3497 455.977C61.2449 445.432 57.1309 434.888 53.0261 424.343C47.272 409.573 41.5179 394.813 35.7638 380.043C35.421 379.172 35.0874 378.31 34.7446 377.439C42.8337 367.525 50.9228 357.611 59.0119 347.696ZM91.6926 429.013C98.4937 421.267 105.295 413.521 112.087 405.784C117.711 414.836 123.335 423.88 128.96 432.933C138.17 447.749 147.371 462.565 156.572 477.372C158.37 480.253 160.158 483.135 161.946 486.026C152.995 495.338 144.035 504.669 135.075 513.981C128.209 521.134 121.334 528.288 114.468 535.432C108.686 526.138 102.895 516.844 97.1131 507.551C88.1159 493.087 79.1188 478.632 70.1216 464.168C68.8337 462.102 67.5457 460.035 66.267 457.978C74.736 448.323 83.2143 438.668 91.6926 429.013ZM142.432 509.228C149.345 502.028 156.266 494.838 163.179 487.638C170.156 495.579 177.133 503.511 184.101 511.452C195.832 524.785 207.544 538.128 219.265 551.462C222.082 554.658 224.889 557.855 227.697 561.052C218.329 569.919 208.961 578.777 199.584 587.645C192.394 594.455 185.194 601.256 177.995 608.067C170.869 599.95 163.735 591.824 156.6 583.707C145.11 570.614 133.611 557.531 122.112 544.438C119.953 541.992 117.804 539.536 115.654 537.09C124.586 527.806 133.509 518.521 142.432 509.228ZM207.442 582.984C214.669 576.136 221.906 569.298 229.142 562.46C237.343 569.206 245.543 575.951 253.752 582.697C267.392 593.927 281.04 605.157 294.68 616.378C297.756 618.908 300.841 621.447 303.918 623.976C294.198 632.343 284.469 640.71 274.74 649.077C267.058 655.675 259.377 662.281 251.695 668.888C243.282 661.966 234.869 655.045 226.446 648.123C213.075 637.115 199.695 626.117 186.315 615.109C184.027 613.228 181.738 611.347 179.449 609.457C188.78 600.635 198.111 591.805 207.442 582.984ZM282.449 645.084C290.167 638.449 297.876 631.815 305.595 625.181C315.241 630.675 324.896 636.17 334.551 641.655C349.432 650.124 364.303 658.584 379.184 667.053C381.214 668.202 383.243 669.36 385.272 670.509C375.348 678.348 365.424 686.178 355.492 694.007C347.134 700.605 338.785 707.193 330.427 713.79C320.578 708.193 310.728 702.588 300.869 696.982C286.415 688.772 271.951 680.544 257.487 672.325C256.143 671.556 254.79 670.797 253.437 670.027C263.111 661.716 272.775 653.395 282.449 645.084ZM362.089 691.357C370.474 684.732 378.869 678.117 387.255 671.491C398.485 675.207 409.715 678.913 420.946 682.62C435.799 687.521 450.661 692.423 465.514 697.334C465.755 697.408 465.996 697.491 466.228 697.566C456.35 704.839 446.473 712.122 436.596 719.405C427.357 726.206 418.119 733.017 408.881 739.827C397.429 736.047 385.985 732.266 374.533 728.486C360.56 723.862 346.578 719.248 332.596 714.624C342.427 706.868 352.258 699.113 362.089 691.357ZM691.379 506.272C693.074 489.464 694.77 472.646 696.456 455.838C696.679 453.614 696.901 451.39 697.133 449.166C708.048 440.957 718.963 432.747 729.878 424.538C729.675 435.833 729.48 447.128 729.276 458.423C728.998 474.11 728.72 489.797 728.442 505.484C728.424 506.263 728.414 507.05 728.396 507.829C717.166 516.325 705.945 524.831 694.714 533.328C692.537 534.978 690.341 536.636 688.164 538.285C689.238 527.62 690.313 516.946 691.379 506.272ZM731.268 419.794C728.655 409.416 726.033 399.057 723.42 388.679C719.325 372.436 715.22 356.184 711.124 339.941C710.633 337.976 710.133 336.003 709.633 334.038C714.275 325.606 718.917 317.174 723.559 308.742C727.571 319.537 731.574 330.341 735.586 341.136C740.729 354.979 745.862 368.813 750.995 382.647C751.088 382.888 751.181 383.129 751.264 383.37C744.602 395.508 737.93 407.646 731.268 419.794ZM723.087 303.73C716.739 294.908 710.383 286.087 704.036 277.266C694.52 264.062 685.004 250.859 675.497 237.645C674.663 236.487 673.82 235.32 672.986 234.162C673.69 228.954 674.385 223.747 675.08 218.549C683.503 227.11 691.907 235.681 700.32 244.243C709.364 253.453 718.407 262.663 727.442 271.864C725.987 282.492 724.541 293.111 723.087 303.73ZM702.544 243.64C693.464 234.402 684.383 225.155 675.303 215.908C674.422 209.959 673.533 204.02 672.652 198.071C683.345 205.586 694.038 213.1 704.74 220.615C710.374 224.571 716.017 228.537 721.65 232.494C723.448 244.53 725.255 256.566 727.052 268.603C718.88 260.282 710.717 251.961 702.544 243.64ZM689.146 207.216C683.484 203.241 677.823 199.257 672.152 195.282C672.143 195.263 672.134 195.245 672.124 195.236C669.623 188.814 667.121 182.402 664.619 175.99C677.23 180.623 689.841 185.266 702.461 189.908C703.489 190.288 704.527 190.668 705.556 191.047C710.513 203.76 715.479 216.482 720.437 229.195C710.003 221.866 699.579 214.546 689.146 207.216ZM666.75 174.638C665.685 174.248 664.619 173.85 663.553 173.461C659.495 166.938 655.427 160.415 651.36 153.882C661.015 152.687 670.66 151.501 680.315 150.306C687.737 162.24 695.15 174.174 702.572 186.118C703.026 186.85 703.48 187.582 703.934 188.314C691.536 183.755 679.148 179.196 666.75 174.638ZM608.709 80.9043C609.719 92.4773 610.719 104.06 611.729 115.633C605.345 111.991 598.952 108.35 592.558 104.699C586.48 91.8658 580.392 79.0326 574.314 66.1901C573.267 63.9848 572.22 61.7795 571.173 59.565C582.579 66.0511 593.995 72.5372 605.41 79.0233C606.504 79.6534 607.606 80.2742 608.709 80.9043ZM567.244 57.6284C567.559 57.7396 567.874 57.8415 568.189 57.9435C574.258 70.7489 580.318 83.5543 586.387 96.3597C587.555 98.8152 588.722 101.271 589.89 103.735C583.691 101.678 577.492 99.6213 571.293 97.5643C563.176 87.0938 555.069 76.6234 546.952 66.153C541.643 59.3148 536.343 52.4766 531.042 45.6477C543.116 49.6413 555.18 53.6348 567.244 57.6284ZM490.819 39.977C479.348 34.4545 467.868 28.9228 456.397 23.4003C446.825 18.7952 437.263 14.1808 427.691 9.57569C440.219 10.4837 452.737 11.3918 465.264 12.2906C468.674 12.5408 472.093 12.7909 475.512 13.0411C487.345 20.1666 499.177 27.3013 511.01 34.436C515.392 37.0768 519.775 39.7175 524.149 42.3583C513.039 41.5707 501.929 40.7738 490.819 39.977ZM422.419 9.26065C433.834 14.7553 445.25 20.2592 456.675 25.7539C466.997 30.7296 477.31 35.6961 487.632 40.6626C477.893 43.1366 468.155 45.6013 458.417 48.0753C458.389 48.0661 458.37 48.0661 458.343 48.0753C447.223 44.0632 436.114 40.0604 425.004 36.0482C410.114 30.6833 395.233 25.3184 380.343 19.9442C393.046 16.7197 405.759 13.4859 418.462 10.2614C419.778 9.92779 421.094 9.59422 422.419 9.26065ZM343.205 44.0354C342.788 44.3504 342.362 44.6748 341.945 44.9898C330.325 45.1566 318.715 45.3234 307.096 45.4809C290.779 45.7125 274.462 45.9442 258.135 46.1758C257.579 46.1851 257.023 46.1944 256.458 46.2036C267.003 38.2442 277.547 30.2849 288.092 22.3255C290.788 20.287 293.484 18.2578 296.171 16.2193C308.393 16.9142 320.615 17.5999 332.827 18.2949C346.606 19.0732 360.375 19.8515 374.153 20.6299C363.84 28.4317 353.518 36.2336 343.205 44.0354ZM231.941 84.2956C230.134 87.5942 228.318 90.8928 226.511 94.1915C215.577 98.1017 204.634 102.012 193.7 105.922C178.439 111.38 163.179 116.837 147.918 122.295C147.362 122.489 146.806 122.693 146.25 122.888C152.532 111.463 158.814 100.048 165.106 88.632C168.117 83.1651 171.119 77.7075 174.131 72.2407C185.63 68.766 197.129 65.3006 208.628 61.8259C222.869 57.5265 237.111 53.2179 251.353 48.9185C244.885 60.714 238.417 72.5001 231.941 84.2956ZM138.819 96.5265C149.382 89.225 159.954 81.9328 170.517 74.6405C164.494 85.5928 158.462 96.545 152.43 107.488C149.419 112.964 146.407 118.44 143.387 123.916C143.34 123.963 143.294 124.028 143.248 124.092C133.324 131.116 123.4 138.13 113.467 145.154C102.413 152.974 91.359 160.785 80.2955 168.606C86.2628 157.774 92.2207 146.942 98.1879 136.101C101.598 129.911 105.008 123.703 108.417 117.504C118.554 110.518 128.691 103.522 138.819 96.5265ZM70.9741 210.997C69.5935 221.041 68.2221 231.085 66.8508 241.12C59.0304 251.266 51.21 261.403 43.3896 271.549C36.7923 280.102 30.1951 288.654 23.607 297.206C25.2471 285.179 26.8871 273.143 28.5272 261.116C29.7596 252.082 30.9827 243.047 32.215 234.013C39.776 223.886 47.3369 213.758 54.8978 203.631C61.875 194.3 68.8337 184.969 75.8109 175.638C74.1986 187.425 72.5863 199.211 70.9741 210.997ZM27.4431 395.721C29.5001 390.477 31.5479 385.241 33.6049 380.006C37.5985 390.273 41.6013 400.53 45.6042 410.797C51.3583 425.557 57.1124 440.327 62.8665 455.097C63.2186 456.005 63.5707 456.903 63.9228 457.811C57.3996 470.265 50.8764 482.727 44.3533 495.181C42.7874 498.164 41.2214 501.148 39.6648 504.132C35.3376 493.068 31.0012 482.005 26.674 470.941C21.8928 458.71 17.1117 446.489 12.3305 434.267C17.3618 421.424 22.4025 408.573 27.4431 395.721ZM60.1979 469.236C61.8287 466.123 63.4595 463.01 65.0903 459.896C70.798 469.06 76.4965 478.215 82.195 487.379C91.2015 501.843 100.199 516.307 109.196 530.771C110.493 532.846 111.781 534.931 113.078 537.007C104.535 548.274 96.0012 559.541 87.4581 570.799C86.1979 572.467 84.947 574.117 83.6869 575.784C77.5343 565.87 71.3725 555.946 65.22 546.032C57.2421 533.18 49.2642 520.328 41.2863 507.467C41.0824 507.143 40.8879 506.819 40.684 506.494C47.1886 494.078 53.6933 481.653 60.1979 469.236ZM110.428 543.808C111.735 542.084 113.041 540.361 114.348 538.638C121.436 546.708 128.534 554.788 135.622 562.859C147.121 575.951 158.62 589.035 170.119 602.127C172.25 604.555 174.39 606.992 176.521 609.419C166.06 618.676 155.59 627.933 145.129 637.189C143.674 638.468 142.219 639.756 140.774 641.044C133.102 632.315 125.43 623.596 117.757 614.868C107.306 602.989 96.8536 591.11 86.4017 579.222C85.9014 578.648 85.401 578.073 84.8914 577.499C93.3975 566.268 101.913 555.038 110.428 543.808ZM173.492 614.775C174.983 613.459 176.466 612.144 177.958 610.828C186.371 617.74 194.784 624.662 203.189 631.583C216.568 642.582 229.948 653.59 243.328 664.598C245.543 666.414 247.757 668.239 249.972 670.065C238.056 677.134 226.149 684.213 214.234 691.293C211.797 692.738 209.36 694.193 206.923 695.638C197.87 688.198 188.817 680.748 179.755 673.298C167.673 663.365 155.59 653.423 143.507 643.481C143.072 643.129 142.645 642.777 142.219 642.434C152.643 633.214 163.067 623.995 173.492 614.775ZM244.31 675.763C246.775 674.299 249.249 672.826 251.723 671.362C261.601 676.977 271.478 682.592 281.355 688.198C295.819 696.426 310.274 704.645 324.738 712.863C325.915 713.531 327.082 714.198 328.25 714.865C315.871 720.017 303.501 725.169 291.122 730.32C286.6 732.201 282.078 734.082 277.547 735.973C266.993 729.959 256.449 723.955 245.895 717.941C233.534 710.918 221.183 703.876 208.832 696.843C220.655 689.819 232.478 682.786 244.31 675.763ZM316.871 721.749C321.43 719.859 325.989 717.96 330.548 716.06C342.047 719.859 353.546 723.658 365.045 727.457C378.628 731.942 392.212 736.427 405.796 740.92C393.732 744.747 381.668 748.574 369.594 752.401C362.376 754.69 355.149 756.987 347.931 759.276C335.774 755.264 323.626 751.252 311.469 747.24C301.092 743.821 290.714 740.392 280.336 736.964C292.511 731.896 304.696 726.827 316.871 721.749ZM440.839 718.757C450.124 711.918 459.399 705.08 468.674 698.242C481.331 699.15 493.998 700.049 506.655 700.957C518.07 701.772 529.486 702.588 540.911 703.403C531.237 710.232 521.554 717.052 511.881 723.89C501.809 730.997 491.727 738.104 481.646 745.211C468.794 744.284 455.924 743.348 443.072 742.412C432.658 741.653 422.243 740.902 411.828 740.142C421.501 733.007 431.166 725.882 440.839 718.757ZM731.037 472.414C731.315 456.727 731.593 441.04 731.871 425.353C731.889 424.491 731.898 423.63 731.917 422.777C738.449 410.88 744.982 398.983 751.523 387.085C752.015 398.538 752.506 409.99 752.997 421.443C753.562 434.406 754.118 447.369 754.674 460.332C747.863 472.711 741.044 485.09 734.233 497.46C732.973 499.74 731.722 502.019 730.471 504.298C730.657 493.67 730.851 483.042 731.037 472.414ZM752.311 376.541C752.181 377.486 752.052 378.431 751.922 379.376C748.123 369.137 744.324 358.898 740.516 348.66C735.382 334.826 730.249 320.983 725.107 307.149C724.995 306.861 724.893 306.565 724.782 306.278C724.782 306.25 724.773 306.213 724.764 306.176C726.191 295.752 727.618 285.328 729.035 274.904C734.4 285.902 739.765 296.891 745.13 307.89C749.439 316.739 753.757 325.588 758.074 334.437C756.147 348.465 754.229 362.503 752.311 376.541ZM756.045 320.695C756.407 323.114 756.768 325.532 757.139 327.96C752.255 317.934 747.363 307.899 742.471 297.874C738.134 288.978 733.789 280.083 729.452 271.188C727.738 259.698 726.015 248.199 724.291 236.7C730.824 247.486 737.347 258.271 743.879 269.057C745.825 272.272 747.771 275.478 749.707 278.693C751.82 292.694 753.933 306.695 756.045 320.695ZM741.655 258.003C742.943 261.301 744.222 264.581 745.51 267.871C740.126 258.975 734.743 250.08 729.36 241.185C727.404 237.97 725.459 234.745 723.503 231.521C723.476 231.41 723.439 231.308 723.383 231.234C718.926 219.818 714.469 208.402 710.022 196.987C715.59 204.566 721.15 212.155 726.719 219.744C731.695 232.494 736.68 245.253 741.655 258.003ZM711.968 196.014C712.31 196.561 712.644 197.107 712.987 197.645C711.05 195.013 709.123 192.382 707.196 189.75C700.756 179.391 694.316 169.032 687.876 158.673C688.849 159.766 689.822 160.859 690.795 161.943C697.846 173.303 704.907 184.663 711.968 196.014ZM568.041 51.9855C575.5 56.22 582.959 60.4545 590.409 64.689C594.161 67.9876 597.914 71.2863 601.667 74.5849C592.16 69.1829 582.653 63.781 573.156 58.379C571.97 57.7118 570.784 57.0354 569.598 56.359C569.496 56.2478 569.375 56.1737 569.255 56.1366C562.157 50.957 555.06 45.7681 547.962 40.5792C554.652 44.3782 561.351 48.1865 568.041 51.9855ZM515.309 26.1894C521.146 28.1259 526.984 30.0625 532.821 31.9991C542.94 39.3839 553.049 46.7781 563.167 54.163C552.076 50.4937 540.994 46.8244 529.912 43.1552C529.541 43.0254 529.171 42.905 528.809 42.7845C528.698 42.6919 528.578 42.6363 528.457 42.6177C516.662 35.5016 504.866 28.3854 493.071 21.2785C490.06 19.4624 487.048 17.6462 484.037 15.8394C494.461 19.2863 504.885 22.7425 515.309 26.1894ZM337.164 5.74889C342.037 4.50726 346.911 3.26564 351.785 2.03328C364.841 3.34903 377.896 4.67405 390.943 5.99907C399.56 6.87006 408.168 7.74105 416.776 8.6213C404.841 11.6512 392.916 14.6812 380.982 17.7111C379.657 18.0447 378.332 18.3783 377.007 18.7211C376.914 18.7118 376.803 18.7211 376.701 18.7582C364.461 18.0632 352.211 17.3775 339.971 16.6826C327.462 15.9784 314.953 15.2742 302.444 14.5607C314.018 11.6234 325.591 8.68617 337.164 5.74889ZM291.122 17.5351C281.142 25.0682 271.172 32.6013 261.193 40.1252C258.459 42.1915 255.726 44.2578 252.993 46.3148C252.983 46.3241 252.965 46.3333 252.956 46.3426C241.382 49.8358 229.8 53.3291 218.227 56.8316C204.986 60.8251 191.755 64.828 178.514 68.8216C188.215 61.4923 197.907 54.1723 207.608 46.843C212.13 43.4239 216.652 40.0048 221.174 36.5949C233.275 33.2963 245.376 29.9976 257.468 26.7083C268.689 23.6505 279.91 20.5928 291.122 17.5351ZM52.2849 197.524C55.3519 191.956 58.4189 186.378 61.4859 180.799C68.9541 170.727 76.4224 160.646 83.8907 150.565C89.1352 143.495 94.3796 136.416 99.6149 129.346C95.334 137.12 91.0625 144.894 86.7816 152.659C83.3996 158.821 80.0083 164.983 76.617 171.135C76.5151 171.228 76.4317 171.358 76.3854 171.524C68.8244 181.661 61.2542 191.798 53.684 201.926C48.8287 208.43 43.9734 214.935 39.1273 221.43C43.5101 213.471 47.8928 205.502 52.2849 197.524ZM10.1623 305.712C13.9335 293.417 17.7139 281.13 21.4944 268.844C23.8757 261.107 26.2478 253.36 28.6291 245.623C27.369 254.843 26.1181 264.062 24.8579 273.282C23.6256 282.325 22.3932 291.369 21.1608 300.412C21.0867 300.542 21.0497 300.681 21.0497 300.811C16.9356 313.468 12.8216 326.134 8.70754 338.801C6.97482 344.138 5.24211 349.475 3.50939 354.812C4.88074 344.685 6.25208 334.566 7.62343 324.439C8.46662 318.194 9.30982 311.948 10.1623 305.712ZM8.94845 445.516C8.25351 440.901 7.56784 436.305 6.8729 431.7C5.90925 418.543 4.93633 405.376 3.97268 392.219C4.63056 396.629 5.28843 401.049 5.95558 405.469C7.37325 415.003 8.80019 424.547 10.2179 434.091C10.2179 434.147 10.2179 434.211 10.2271 434.267C10.2086 434.406 10.2271 434.536 10.2735 434.647C10.8757 445.182 11.478 455.727 12.0803 466.262C11.0333 459.35 9.99549 452.428 8.94845 445.516ZM23.2179 507.912C20.5771 501.129 17.9363 494.347 15.2956 487.564C14.4894 473.387 13.6833 459.22 12.8679 445.043C12.7845 443.524 12.7011 442.004 12.6085 440.475C16.4445 450.278 20.2806 460.072 24.1074 469.866C28.9071 482.144 33.7161 494.412 38.5158 506.689C37.8579 518.494 37.2 530.289 36.5422 542.094C32.1038 530.706 27.6655 519.309 23.2179 507.912ZM53.0354 570.169C48.1245 562.275 43.2136 554.38 38.3027 546.495C38.9884 534.255 39.6648 522.005 40.3504 509.765C46.2065 519.198 52.0532 528.621 57.9092 538.054C65.8871 550.906 73.8558 563.767 81.8337 576.618C82.0561 576.97 82.2692 577.313 82.4916 577.665C79.3782 585.94 76.2649 594.223 73.1516 602.498C66.4431 591.722 59.7346 580.945 53.0354 570.169ZM94.4352 627.191C87.8009 619.64 81.1573 612.088 74.5136 604.536C77.6548 596.179 80.7959 587.821 83.9463 579.463C91.4702 588.015 98.994 596.577 106.527 605.139C116.97 617.017 127.431 628.906 137.874 640.784C138.318 641.285 138.763 641.794 139.208 642.295C132.833 646.992 126.467 651.681 120.092 656.37C111.549 646.64 102.997 636.921 94.4352 627.191ZM143.887 676.143C136.447 670.009 129.015 663.884 121.575 657.759C127.931 653.08 134.288 648.401 140.644 643.722C149.678 651.153 158.712 658.584 167.756 666.015C179.839 675.948 191.921 685.891 204.004 695.833C204.162 695.963 204.328 696.092 204.486 696.222C194.386 697.853 184.286 699.474 174.177 701.096C164.087 692.775 153.987 684.464 143.887 676.143ZM196.832 714.059C190.179 710.269 183.517 706.479 176.864 702.69C186.788 701.096 196.712 699.502 206.635 697.908C217.226 703.931 227.817 709.973 238.417 715.995C250.055 722.63 261.702 729.264 273.35 735.889C260.609 735.315 247.878 734.74 235.137 734.166C234.053 734.119 232.978 734.073 231.894 734.017C220.21 727.374 208.526 720.712 196.832 714.059ZM306.095 754.792C300.517 754.189 294.948 753.587 289.37 752.975C276.111 748.611 262.861 744.247 249.601 739.883C246.015 738.706 242.439 737.52 238.853 736.343C250.546 736.871 262.249 737.399 273.943 737.928C274.99 737.974 276.037 738.02 277.084 738.067C277.186 738.113 277.297 738.131 277.427 738.122C289.593 742.134 301.759 746.156 313.925 750.168C322.162 752.883 330.39 755.607 338.628 758.322C327.777 757.145 316.936 755.968 306.095 754.792ZM372.494 761.083C366.073 760.629 359.643 760.166 353.221 759.712C364.609 756.089 375.997 752.484 387.385 748.871C394.612 746.582 401.83 744.284 409.057 741.995C409.122 741.995 409.187 741.977 409.261 741.958C422.15 742.894 435.03 743.83 447.918 744.766C457.286 745.451 466.654 746.128 476.013 746.804C465.199 749.76 454.377 752.716 443.563 755.672C433.408 758.442 423.243 761.213 413.079 763.983C399.551 763.02 386.023 762.056 372.494 761.083ZM543.718 729.505C530.477 732.868 517.236 736.232 503.995 739.595C498.306 741.041 492.626 742.477 486.946 743.923C495.906 737.603 504.866 731.275 513.836 724.955C523.917 717.839 533.989 710.732 544.079 703.616C544.144 703.598 544.219 703.561 544.283 703.514C557.33 700.197 570.385 696.889 583.441 693.581C589.983 691.923 596.524 690.264 603.057 688.605C594.245 694.684 585.433 700.753 576.621 706.831C565.65 714.392 554.689 721.953 543.718 729.505ZM656.613 648.558C656.604 648.558 656.604 648.568 656.604 648.568C645.578 656.879 634.542 665.181 623.516 673.493C620.106 676.069 616.687 678.645 613.268 681.221C619.309 673.187 625.35 665.144 631.382 657.12C640.046 645.593 648.71 634.076 657.373 622.558C657.456 622.447 657.549 622.327 657.633 622.206C657.67 622.188 657.688 622.16 657.716 622.132C668.826 613.756 679.935 605.37 691.055 596.994C693.853 594.881 696.651 592.778 699.449 590.665C693.352 598.903 687.255 607.14 681.159 615.377C672.977 626.441 664.795 637.495 656.613 648.558ZM743.388 497.173C739.821 508.783 736.253 520.393 732.686 531.994C725.987 544.206 719.278 556.419 712.579 568.631C711.245 571.068 709.901 573.514 708.567 575.951C711.282 567.575 713.987 559.208 716.693 550.831C721.169 537.035 725.625 523.228 730.092 509.432C730.166 509.2 730.249 508.968 730.314 508.737C737.161 496.302 744.009 483.867 750.856 471.432C751.19 470.821 751.533 470.209 751.866 469.598C749.04 478.789 746.214 487.981 743.388 497.173ZM756.212 449.426C755.832 440.475 755.443 431.534 755.063 422.583C754.498 409.629 753.942 396.666 753.386 383.703C753.404 383.601 753.404 383.49 753.386 383.37C755.183 370.184 756.99 356.999 758.797 343.814C759.557 354.145 760.317 364.477 761.067 374.808C761.688 383.314 762.318 391.82 762.948 400.326C761.058 414.086 759.177 427.827 757.287 441.578C756.935 444.191 756.573 446.804 756.212 449.426Z" fill="#AAAAAA"/>
</svg>
