<svg width="560" height="554" viewBox="0 0 560 554" fill="none" xmlns="http://www.w3.org/2000/svg">
<path d="M477.521 139.036L400.818 94.7292V183.344L477.521 139.036ZM478.479 306.219L400.823 261.354V276.406L478.479 321.271V306.219ZM400.828 256.906L478.479 301.766V287.828L400.823 242.969L400.828 256.906ZM478.479 269.438L400.823 224.578V238.521L478.479 283.375V269.438ZM478.479 251.047L400.823 206.188V220.125L478.479 264.99V251.047ZM478.479 231.542C452.589 216.609 426.708 201.63 400.823 186.682V201.74L478.479 246.594V231.542ZM439.651 22.9844C453.245 30.8177 466.833 38.6719 480.411 46.5312V94.7292L397.938 47.0833L439.651 22.9844ZM439.651 68.9583L477.521 47.0833L439.651 25.2083L401.786 47.0833L439.651 68.9583ZM478.479 48.7552L441.578 70.0729L478.479 91.3906V48.7552ZM160.13 177.49L82.474 132.63V146.568L160.13 191.427V177.49ZM160.13 159.099L82.474 114.24V128.177L160.13 173.036V159.099ZM160.13 140.703L82.474 95.8438V109.786L160.13 154.646V140.703ZM174.125 130.401L96.4635 85.5365L84.401 92.5L162.062 137.365L174.125 130.401ZM190.042 121.203L112.38 76.3385L100.318 83.3073L177.979 128.172L190.042 121.203ZM238.76 93.0625L161.099 48.1979L148.073 55.724L225.734 100.589L238.76 93.0625ZM162.062 193.099L193.411 211.208L206.438 203.682L162.062 178.047V193.099ZM174.604 222.073L162.062 214.828V229.318L174.604 222.073ZM162.062 211.484L177.495 220.401L190.521 212.875L162.062 196.438V211.484ZM319.302 213.151L241.651 168.292V184.453L319.302 229.318V213.151ZM319.302 194.766L241.651 149.901V166.068L319.302 210.927V194.766ZM319.302 176.375L241.651 131.516V147.677L319.302 192.536V176.375ZM194.839 212.589L272.516 257.464L286.51 249.38L208.828 204.505L194.839 212.589ZM254.672 267.771L177.005 222.901L163.021 230.984L240.688 275.849L254.672 267.771ZM178.932 221.786L256.599 266.656L270.589 258.578L192.911 213.703L178.932 221.786ZM160.13 214.266L82.474 169.406V184.458L160.13 229.318V214.266ZM82.474 164.953L160.13 209.812V195.88L82.474 151.016V164.953ZM205.958 112.01L128.297 67.1458L116.229 74.1146L193.896 118.979L205.958 112.01ZM132.151 64.9167L209.812 109.781L221.88 102.812L144.219 57.9479L132.151 64.9167ZM222.354 194.49L162.062 159.656V174.708L209.328 202.01L222.354 194.49ZM162.062 156.318L225.245 192.818L238.276 185.286L162.062 141.26V156.318ZM239.719 130.953L208.365 112.844L195.339 120.365L239.719 146.005V130.953ZM227.167 101.979L239.719 109.229V94.7292L227.167 101.979ZM239.719 112.562L224.281 103.646L211.255 111.172L239.719 127.615V112.562ZM179.417 129.562L239.719 164.396V149.344L192.448 122.036L179.417 129.562ZM239.719 167.729L176.531 131.229L163.505 138.755L239.719 182.786V167.729ZM302.427 240.182L224.75 195.312L210.755 203.396L288.432 248.266L302.427 240.182ZM226.677 194.203L304.349 239.073L318.344 230.99L240.682 186.125L226.677 194.203ZM319.302 157.984L241.651 113.125V129.286L319.302 174.146V157.984ZM241.651 110.896L319.302 155.76V139.589L241.651 94.7292V110.896ZM242.609 93.0625L320.271 137.927L397.938 93.0625L320.271 48.1979L242.609 93.0625ZM42.6823 299.391C42.6823 315.089 42.6562 330.786 42.6823 346.479L0.96875 370.578C0.947918 338.818 0.963542 307.057 0.963542 275.297L42.6823 299.391ZM39.7969 345.922L2.89062 324.604V367.245L39.7969 345.922ZM2.89062 322.38L40.7604 344.26V300.5L2.88542 278.625L2.89062 322.38ZM42.6823 114.38V163.693L0 139.036L42.6823 114.38ZM40.75 117.714L3.84896 139.036L40.75 160.354V117.714ZM240.688 0C254.599 8.01562 268.5 16.0625 282.401 24.099C268.495 32.1302 254.583 40.151 240.688 48.1979C226.786 40.151 212.87 32.1302 198.969 24.099L240.688 0ZM240.688 2.22396L202.818 24.099L240.688 45.974L278.552 24.099L240.688 2.22396ZM239.719 277.516L162.062 232.656V322.38L239.719 367.24V277.516ZM319.312 413.224V322.38L397.932 276.958L320.271 232.099C294.042 247.198 267.865 262.396 241.651 277.516V368.359L319.312 413.224ZM321.234 342.448V357.495L398.891 312.635V297.583L321.234 342.448ZM398.891 278.63L321.234 323.495V339.104L398.891 294.245V278.63ZM321.234 375.885L398.891 331.026V315.974L321.234 360.839V375.885ZM321.234 394.276L398.891 349.411V334.365L321.234 379.224V394.276ZM398.891 352.75L321.234 397.615V413.224L398.891 368.359V352.75ZM147.104 240.182V329.906L160.141 322.38L160.135 232.656L147.104 240.182ZM131.182 249.375V339.104L143.26 332.13L143.255 242.406L131.182 249.375ZM115.266 258.573V348.302L127.339 341.328V251.599L115.266 258.573ZM99.349 267.766V357.495L111.422 350.521L111.417 260.797L99.349 267.766ZM82.474 367.245L95.5052 359.719V269.99L82.474 277.516V367.245ZM174.609 405.974L96.9479 361.109L83.4375 368.911L161.099 413.776L174.609 405.974ZM99.8385 359.438L177.495 404.302L190.526 396.776L112.865 351.917L99.8385 359.438ZM147.594 331.854L225.25 376.714L238.76 368.911L161.104 324.047L147.594 331.854ZM206.438 387.583L128.781 342.719L115.755 350.245L193.411 395.109L206.438 387.583ZM131.672 341.052L209.328 385.911L222.359 378.385L144.703 333.521L131.672 341.052ZM119.38 437.875L82.474 416.557V459.193L119.38 437.875ZM123.229 437.875L80.5469 462.531V413.224L123.229 437.875ZM397.938 460.859L321.234 416.552V505.167L397.938 460.859ZM177.016 514.922L254.677 470.052L240.688 461.974L163.021 506.839L177.016 514.922ZM224.771 542.505L302.438 497.641L288.443 489.562L210.781 534.427L224.771 542.505ZM304.359 498.755L226.698 543.62L240.688 551.703L318.354 506.839L304.359 498.755ZM192.938 524.12L270.599 479.255L256.604 471.167L178.943 516.031L192.938 524.12ZM272.526 480.365L194.865 525.229L208.854 533.312L286.516 488.448L272.526 480.365ZM398.896 94.7292L321.24 139.589V230.432L398.891 275.292C398.891 215.099 398.896 154.922 398.896 94.7292ZM322.198 414.891L401.781 460.865C348.094 491.896 294.401 522.932 240.688 553.922C213.51 538.245 186.344 522.542 159.177 506.839C186.344 491.135 213.531 475.469 240.688 459.755L319.312 505.172C319.312 475.26 319.328 445.354 319.312 415.443C293.089 400.328 266.885 385.177 240.688 370.021L161.099 416C134.224 400.542 107.385 384.99 80.5469 369.469V277.51L0.00520833 230.984L80.5469 184.458V92.5104C107.396 76.9948 134.224 61.4375 161.104 45.974L240.688 91.9479L320.271 45.974C374.01 76.9219 427.667 108.016 481.37 139.036L401.781 185.01L479.443 229.875L559.995 183.349C559.995 215.109 560.01 246.87 559.99 278.63C533.464 263.307 506.948 247.969 480.411 232.656V324.609C453.885 309.286 427.344 293.969 400.823 278.63V369.469C374.625 384.615 348.422 399.776 322.198 414.891ZM159.177 230.984L81.5104 186.125L3.84896 230.984L81.5156 275.849C107.401 260.896 133.292 245.943 159.177 230.984ZM558.073 186.677L481.37 230.984L558.068 275.292L558.073 186.677Z" fill="#AAAAAA"/>
</svg>
